<svg xmlns="http://www.w3.org/2000/svg" viewBox="30 32 72 66" fill="none">
  <defs>
    <linearGradient id="asvior-gold-leg" x1="72" y1="18" x2="98" y2="108" gradientUnits="userSpaceOnUse">
      <stop stop-color="#F2D98B"/>
      <stop offset="0.45" stop-color="#D4AF37"/>
      <stop offset="1" stop-color="#9A7728"/>
    </linearGradient>
    <linearGradient id="asvior-gold-arc" x1="24" y1="72" x2="98" y2="72" gradientUnits="userSpaceOnUse">
      <stop stop-color="#E8C96A"/>
      <stop offset="1" stop-color="#B8892E"/>
    </linearGradient>
  </defs>
  <path d="M34 98L58 34L66 34L42 98H34Z" fill="#0B1F3A"/>
  <path d="M58 34L86 98H76L66 72L56 98H46L58 34Z" fill="url(#asvior-gold-leg)"/>
  <path d="M44 88L52 76L58 82L64 70L72 88H44Z" fill="#0B1F3A"/>
  <path d="M50 76L52 74L54 76M62 70L64 68L66 70" stroke="#FAF8F4" stroke-width="1.6" stroke-linecap="round"/>
  <path d="M28 68C42 58 58 54 74 58C84 60 92 64 98 70" stroke="url(#asvior-gold-arc)" stroke-width="4.5" stroke-linecap="round"/>
  <path d="M96 68L104 64L100 70L104 76L96 72L92 74L94 70L96 68Z" fill="#0B1F3A"/>
</svg>
